<?xml version="1.0" encoding="utf-8"?>
<svg viewBox="28.6029 19.0807 144 364.25" width="50.8mm" height="128.5mm" xmlns="http://www.w3.org/2000/svg">
  <g id="Warstwa_1-2" data-name="Warstwa 1" transform="matrix(1, 0, 0, 1, 28.602863311767578, 19.08072280883789)">
    <rect class="cls-4" id="rect1" width="144" height="364.25" style="fill: rgb(28, 28, 28); stroke-width: 0px;"/>
    <rect class="cls-1" id="rect2" x="5.06" y="21.93" width="133.88" height="320.39" rx="5.51" ry="5.51" style="fill: none; stroke: rgb(255, 255, 255); stroke-miterlimit: 10;"/>
    <rect class="cls-4" id="rect3" x="51.42" y="15.5" width="41.17" height="12.87" style="fill: rgb(28, 28, 28); stroke-width: 0px;"/>
    <g id="group1">
      <path class="cls-3" id="path1" d="m67.36,17.46l-3.04,8.94h-3.84l-3.04-8.94h3.95l1.01,3.01,1.01-3.01h3.95Z" style="fill: rgb(255, 255, 255); stroke-width: 0px;"/>
      <path class="cls-3" id="path2" d="m76.68,18.26l-1.66,3.16c-.48-.17-1.02-.25-1.61-.25-.84,0-1.26.23-1.26.69,0,.22.12.39.35.51.23.12.57.18,1,.18.59,0,1.09-.11,1.51-.32l1.66,3.39c-.47.28-1.04.51-1.7.67s-1.3.25-1.9.25c-1.52,0-2.73-.44-3.63-1.32s-1.35-1.96-1.35-3.24c0-1.36.47-2.47,1.41-3.35s2.13-1.32,3.57-1.32c.62,0,1.27.08,1.94.25s1.22.4,1.67.69Z" style="fill: rgb(255, 255, 255); stroke-width: 0px;"/>
      <path class="cls-3" id="path3" d="m81.96,26.55c-1.28,0-2.36-.45-3.25-1.34s-1.33-1.99-1.33-3.28.44-2.37,1.33-3.27,1.97-1.34,3.25-1.34,2.37.45,3.25,1.34,1.33,1.98,1.33,3.27-.44,2.38-1.33,3.28-1.97,1.34-3.25,1.34Zm0-5.8c-.25,0-.46.09-.63.27s-.25.4-.25.67.08.49.25.67.38.27.63.27.47-.09.64-.27.25-.4.25-.67-.08-.49-.25-.67-.38-.27-.64-.27Z" style="fill: rgb(255, 255, 255); stroke-width: 0px;"/>
    </g>
    <g id="group2">
      <path class="cls-3" id="path4" d="m58.79,48.46c-.33,1.11-1.15,1.95-2.63,1.95-2.01,0-3.07-1.6-3.07-3.57s1.04-3.61,3.08-3.61c1.51,0,2.4.84,2.63,2.01h-.54c-.32-.91-.91-1.51-2.12-1.51-1.74,0-2.47,1.59-2.47,3.1s.72,3.08,2.51,3.08c1.14,0,1.72-.59,2.07-1.45h.54Z" style="fill: rgb(255, 255, 255); stroke-width: 0px;"/>
      <path class="cls-3" id="path5" d="m66.19,46.79c0,1.91-1.02,3.65-3.18,3.65-1.97,0-3.12-1.59-3.12-3.6s1.11-3.6,3.19-3.6c1.92,0,3.11,1.51,3.11,3.55Zm-5.72.02c0,1.61.89,3.13,2.57,3.13,1.81,0,2.57-1.48,2.57-3.14s-.86-3.06-2.55-3.06c-1.8,0-2.59,1.49-2.59,3.07Z" style="fill: rgb(255, 255, 255); stroke-width: 0px;"/>
      <path class="cls-3" id="path6" d="m68.39,47.91l-.89,2.42h-.55l2.57-7h.64l2.68,7h-.59l-.91-2.42h-2.95Zm2.77-.5c-.78-2.08-1.18-3.08-1.32-3.55h0c-.17.53-.62,1.77-1.25,3.55h2.58Z" style="fill: rgb(255, 255, 255); stroke-width: 0px;"/>
      <path class="cls-3" id="path7" d="m74.63,47.06v3.27h-.55v-7h2.51c1.38,0,2.11.74,2.11,1.84,0,.89-.53,1.47-1.31,1.64.72.17,1.2.64,1.2,1.83v.27c0,.49-.04,1.15.09,1.42h-.55c-.13-.3-.1-.86-.1-1.46v-.18c0-1.15-.34-1.63-1.68-1.63h-1.72Zm0-.5h1.69c1.23,0,1.8-.46,1.8-1.38,0-.86-.56-1.35-1.65-1.35h-1.84v2.73Z" style="fill: rgb(255, 255, 255); stroke-width: 0px;"/>
      <path class="cls-3" id="path8" d="m80.41,48.45c.21.93.83,1.48,1.98,1.48,1.28,0,1.77-.64,1.77-1.4s-.35-1.28-1.89-1.66c-1.48-.37-2.12-.85-2.12-1.86,0-.92.67-1.78,2.17-1.78s2.19.94,2.28,1.79h-.56c-.16-.75-.65-1.29-1.75-1.29-1.01,0-1.56.47-1.56,1.25s.46,1.07,1.75,1.39c1.97.49,2.26,1.28,2.26,2.12,0,1.03-.75,1.92-2.37,1.92-1.75,0-2.39-1.02-2.52-1.96h.56Z" style="fill: rgb(255, 255, 255); stroke-width: 0px;"/>
      <path class="cls-3" id="path9" d="m90.37,46.9h-3.57v2.94h3.91l-.08.5h-4.37v-7h4.29v.5h-3.75v2.56h3.57v.5Z" style="fill: rgb(255, 255, 255); stroke-width: 0px;"/>
    </g>
    <g id="group3">
      <path class="cls-3" id="path10" d="m37.23,146.9h3.39v.4h-2.96v2.11h2.77v.4h-2.77v2.69h-.43v-5.6Z" style="fill: rgb(255, 255, 255); stroke-width: 0px;"/>
      <path class="cls-3" id="path11" d="m42.04,146.9v5.6h-.43v-5.6h.43Z" style="fill: rgb(255, 255, 255); stroke-width: 0px;"/>
      <path class="cls-3" id="path12" d="m43.69,152.49v-5.6h.64c.87,1.34,2.92,4.47,3.27,5.08h0c-.05-.81-.04-1.63-.04-2.54v-2.53h.44v5.6h-.59c-.83-1.3-2.91-4.55-3.31-5.17h0c.04.74.03,1.55.03,2.57v2.6h-.44Z" style="fill: rgb(255, 255, 255); stroke-width: 0px;"/>
      <path class="cls-3" id="path13" d="m52.95,149.74h-2.85v2.35h3.13l-.06.4h-3.49v-5.6h3.43v.4h-3v2.05h2.85v.4Z" style="fill: rgb(255, 255, 255); stroke-width: 0px;"/>
    </g>
    <g id="group4">
      <path class="cls-3" id="path14" d="m91.5,144.47h2c1.02,0,1.73.57,1.73,1.56s-.7,1.6-1.78,1.6h-1.5v2.44h-.44v-5.6Zm.44,2.76h1.54c.9,0,1.28-.48,1.28-1.18,0-.75-.5-1.18-1.25-1.18h-1.58v2.36Z" style="fill: rgb(255, 255, 255); stroke-width: 0px;"/>
      <path class="cls-3" id="path15" d="m96.81,144.47v3.39c0,1.49.84,1.87,1.63,1.87.94,0,1.63-.39,1.63-1.87v-3.39h.44v3.37c0,1.75-.93,2.29-2.09,2.29s-2.06-.6-2.06-2.22v-3.44h.45Z" style="fill: rgb(255, 255, 255); stroke-width: 0px;"/>
      <path class="cls-3" id="path16" d="m102.08,144.47h.43v5.2h3.01l-.08.4h-3.36v-5.6Z" style="fill: rgb(255, 255, 255); stroke-width: 0px;"/>
      <path class="cls-3" id="path17" d="m106.56,148.56c.17.74.66,1.18,1.58,1.18,1.02,0,1.42-.51,1.42-1.12s-.28-1.02-1.51-1.33c-1.18-.3-1.7-.68-1.7-1.49,0-.74.54-1.42,1.74-1.42s1.75.75,1.82,1.43h-.45c-.13-.6-.52-1.03-1.4-1.03-.81,0-1.25.38-1.25,1s.37.86,1.4,1.11c1.58.39,1.81,1.02,1.81,1.7,0,.82-.6,1.54-1.89,1.54-1.4,0-1.91-.82-2.02-1.57h.45Z" style="fill: rgb(255, 255, 255); stroke-width: 0px;"/>
      <path class="cls-3" id="path18" d="m114.53,147.31h-2.85v2.35h3.13l-.06.4h-3.49v-5.6h3.43v.4h-3v2.05h2.85v.4Z" style="fill: rgb(255, 255, 255); stroke-width: 0px;"/>
      <path class="cls-3" id="path19" d="m118.96,150.06l-1.55-5.6h.45c.38,1.34,1.22,4.44,1.35,5.09h0c.1-.52,1.02-3.61,1.42-5.09h.48c.37,1.37,1.26,4.65,1.35,5.09h0c.18-.79,1.11-3.75,1.5-5.09h.44l-1.71,5.6h-.5c-.37-1.32-1.24-4.56-1.33-5.04h0c-.14.73-1.01,3.65-1.41,5.04h-.49Z" style="fill: rgb(255, 255, 255); stroke-width: 0px;"/>
    </g>
    <g id="group5">
      <path class="cls-3" id="path20" d="m32.17,186.59h3.39v.4h-2.96v2.11h2.77v.4h-2.77v2.69h-.43v-5.6Z" style="fill: rgb(255, 255, 255); stroke-width: 0px;"/>
      <path class="cls-3" id="path21" d="m41.4,189.62c0-1.1,0-2.14.03-2.7h-.02c-.22.75-1.36,3.51-2.07,5.28h-.42c-.54-1.37-1.71-4.44-1.97-5.29h-.02c.04.64.06,1.94.06,2.9v2.38h-.43v-5.6h.65c.77,1.92,1.74,4.43,1.94,5.06h.02c.13-.41,1.25-3.2,2.03-5.06h.64v5.6h-.43v-2.57Z" style="fill: rgb(255, 255, 255); stroke-width: 0px;"/>
      <path class="cls-3" id="path22" d="m45.49,186.59h.43v5.2h3.01l-.08.4h-3.36v-5.6Z" style="fill: rgb(255, 255, 255); stroke-width: 0px;"/>
      <path class="cls-3" id="path23" d="m50.56,192.19l-2.08-5.6h.46l1.09,2.93c.31.85.66,1.78.78,2.25h.02c.12-.42.5-1.4.82-2.22l1.13-2.96h.46l-2.16,5.6h-.51Z" style="fill: rgb(255, 255, 255); stroke-width: 0px;"/>
      <path class="cls-3" id="path24" d="m54.19,186.59h.43v5.2h3.01l-.08.4h-3.36v-5.6Z" style="fill: rgb(255, 255, 255); stroke-width: 0px;"/>
    </g>
    <g id="group6">
      <path class="cls-3" id="path25" d="m75.29,186.59h2c1.02,0,1.73.57,1.73,1.56s-.7,1.6-1.78,1.6h-1.5v2.44h-.44v-5.6Zm.44,2.76h1.54c.9,0,1.28-.48,1.28-1.18,0-.75-.5-1.18-1.25-1.18h-1.58v2.36Z" style="fill: rgb(255, 255, 255); stroke-width: 0px;"/>
      <path class="cls-3" id="path26" d="m81.32,192.19l-1.55-5.6h.45c.38,1.34,1.22,4.44,1.35,5.09h0c.1-.52,1.02-3.61,1.42-5.09h.48c.37,1.37,1.26,4.65,1.35,5.08h0c.18-.79,1.11-3.75,1.5-5.08h.44l-1.71,5.6h-.5c-.37-1.32-1.24-4.56-1.33-5.04h0c-.14.73-1.01,3.65-1.41,5.04h-.49Z" style="fill: rgb(255, 255, 255); stroke-width: 0px;"/>
      <path class="cls-3" id="path27" d="m92.59,189.62c0-1.1,0-2.14.03-2.7h-.02c-.22.75-1.36,3.51-2.07,5.28h-.42c-.54-1.37-1.71-4.44-1.97-5.29h-.02c.04.64.06,1.94.06,2.9v2.38h-.43v-5.6h.65c.77,1.92,1.73,4.43,1.94,5.06h.02c.13-.41,1.25-3.2,2.03-5.06h.64v5.6h-.43v-2.57Z" style="fill: rgb(255, 255, 255); stroke-width: 0px;"/>
      <path class="cls-3" id="path28" d="m100.89,190.69c-.26.89-.92,1.56-2.1,1.56-1.61,0-2.45-1.28-2.45-2.85s.83-2.89,2.46-2.89c1.21,0,1.92.67,2.1,1.61h-.43c-.26-.73-.73-1.21-1.69-1.21-1.39,0-1.98,1.27-1.98,2.48s.58,2.46,2.01,2.46c.91,0,1.38-.47,1.66-1.16h.43Z" style="fill: rgb(255, 255, 255); stroke-width: 0px;"/>
      <path class="cls-3" id="path29" d="m103.64,192.19l-2.08-5.6h.46l1.09,2.93c.31.85.66,1.78.78,2.25h.02c.12-.42.5-1.4.82-2.22l1.13-2.96h.46l-2.16,5.6h-.51Z" style="fill: rgb(255, 255, 255); stroke-width: 0px;"/>
      <path class="cls-3" id="path30" d="m109.29,186.59h.43v5.2h3.01l-.08.4h-3.36v-5.6Z" style="fill: rgb(255, 255, 255); stroke-width: 0px;"/>
      <path class="cls-3" id="path31" d="m114.37,192.19l-2.08-5.6h.46l1.09,2.93c.31.85.66,1.78.78,2.25h.02c.12-.42.5-1.4.82-2.22l1.13-2.96h.46l-2.16,5.6h-.51Z" style="fill: rgb(255, 255, 255); stroke-width: 0px;"/>
      <path class="cls-3" id="path32" d="m118,186.59h.43v5.2h3.01l-.08.4h-3.36v-5.6Z" style="fill: rgb(255, 255, 255); stroke-width: 0px;"/>
    </g>
    <g id="group7">
      <path class="cls-3" id="path33" d="m85.46,227.59h2c1.02,0,1.73.57,1.73,1.56s-.7,1.6-1.78,1.6h-1.5v2.44h-.44v-5.6Zm.44,2.76h1.54c.9,0,1.28-.48,1.28-1.18,0-.75-.5-1.18-1.25-1.18h-1.58v2.36Z" style="fill: rgb(255, 255, 255); stroke-width: 0px;"/>
      <path class="cls-3" id="path34" d="m91.49,233.19l-1.55-5.6h.45c.38,1.34,1.22,4.44,1.35,5.09h0c.1-.52,1.02-3.61,1.42-5.09h.48c.37,1.37,1.26,4.65,1.35,5.09h0c.18-.79,1.11-3.75,1.5-5.09h.44l-1.71,5.6h-.5c-.37-1.32-1.24-4.56-1.33-5.04h0c-.14.73-1.01,3.65-1.41,5.04h-.49Z" style="fill: rgb(255, 255, 255); stroke-width: 0px;"/>
      <path class="cls-3" id="path35" d="m102.76,230.62c0-1.1,0-2.14.03-2.7h-.02c-.22.75-1.36,3.51-2.07,5.28h-.42c-.54-1.37-1.71-4.44-1.97-5.29h-.02c.04.64.06,1.94.06,2.9v2.38h-.43v-5.6h.65c.77,1.92,1.73,4.43,1.94,5.06h.02c.13-.41,1.25-3.2,2.03-5.06h.64v5.6h-.43v-2.57Z" style="fill: rgb(255, 255, 255); stroke-width: 0px;"/>
      <path class="cls-3" id="path36" d="m111.06,231.69c-.26.89-.92,1.56-2.1,1.56-1.61,0-2.45-1.28-2.45-2.86s.83-2.89,2.46-2.89c1.21,0,1.92.67,2.1,1.61h-.43c-.26-.73-.73-1.21-1.69-1.21-1.39,0-1.98,1.27-1.98,2.48s.58,2.46,2.01,2.46c.91,0,1.38-.47,1.66-1.16h.43Z" style="fill: rgb(255, 255, 255); stroke-width: 0px;"/>
      <path class="cls-3" id="path37" d="m113.82,233.19l-2.08-5.6h.46l1.09,2.93c.31.85.66,1.78.78,2.25h.02c.12-.42.5-1.4.82-2.22l1.13-2.96h.46l-2.16,5.6h-.51Z" style="fill: rgb(255, 255, 255); stroke-width: 0px;"/>
    </g>
    <g id="group8">
      <path class="cls-3" id="path38" d="m21.5,296.4v-3.53c-.27.18-.86.4-1.17.46v-.28c.34-.09.85-.32,1.24-.58h.34v3.94h-.41Z" style="fill: rgb(255, 255, 255); stroke-width: 0px;"/>
      <path class="cls-3" id="path39" d="m24.89,296.4l-2.05-4.16h.46l1.07,2.17c.31.63.66,1.32.77,1.67h.02c.12-.31.5-1.04.81-1.65l1.11-2.2h.45l-2.13,4.16h-.51Z" style="fill: rgb(255, 255, 255); stroke-width: 0px;"/>
      <path class="cls-3" id="path40" d="m28.05,296.7l2.23-4.52h.4l-2.23,4.52h-.4Z" style="fill: rgb(255, 255, 255); stroke-width: 0px;"/>
      <path class="cls-3" id="path41" d="m36.51,294.29c0,1.13-.81,2.17-2.51,2.17-1.56,0-2.47-.94-2.47-2.14s.88-2.14,2.52-2.14c1.52,0,2.46.9,2.46,2.11Zm-4.52.01c0,.96.7,1.86,2.03,1.86,1.43,0,2.03-.88,2.03-1.86s-.68-1.82-2.02-1.82c-1.42,0-2.05.88-2.05,1.82Z" style="fill: rgb(255, 255, 255); stroke-width: 0px;"/>
      <path class="cls-3" id="path42" d="m41.9,295.29c-.26.66-.91,1.16-2.08,1.16-1.59,0-2.43-.95-2.43-2.12s.82-2.14,2.43-2.14c1.19,0,1.9.5,2.08,1.19h-.43c-.25-.54-.72-.9-1.68-.9-1.38,0-1.95.94-1.95,1.84s.57,1.83,1.98,1.83c.9,0,1.36-.35,1.64-.86h.43Z" style="fill: rgb(255, 255, 255); stroke-width: 0px;"/>
      <path class="cls-3" id="path43" d="m44.27,292.54h-1.86v-.3h4.16v.3h-1.87v3.86h-.43v-3.86Z" style="fill: rgb(255, 255, 255); stroke-width: 0px;"/>
    </g>
    <g id="group9">
      <path class="cls-3" id="path44" d="m49.17,291.1h3.39v.4h-2.96v2.11h2.77v.4h-2.77v2.69h-.43v-5.6Z" style="fill: rgb(255, 255, 255); stroke-width: 0px;"/>
      <path class="cls-3" id="path45" d="m58.4,294.12c0-1.09,0-2.14.03-2.7h-.02c-.22.75-1.36,3.51-2.07,5.28h-.42c-.54-1.37-1.71-4.44-1.97-5.29h-.02c.04.64.06,1.94.06,2.9v2.38h-.43v-5.6h.65c.77,1.92,1.74,4.43,1.94,5.06h.02c.13-.41,1.25-3.2,2.03-5.06h.64v5.6h-.43v-2.58Z" style="fill: rgb(255, 255, 255); stroke-width: 0px;"/>
      <path class="cls-3" id="path46" d="m66.71,295.2c-.26.89-.92,1.56-2.1,1.56-1.61,0-2.45-1.28-2.45-2.85s.83-2.89,2.46-2.89c1.21,0,1.92.67,2.1,1.61h-.43c-.26-.73-.73-1.21-1.69-1.21-1.39,0-1.98,1.27-1.98,2.48s.58,2.46,2.01,2.46c.91,0,1.38-.47,1.66-1.16h.43Z" style="fill: rgb(255, 255, 255); stroke-width: 0px;"/>
      <path class="cls-3" id="path47" d="m69.46,296.7l-2.08-5.6h.46l1.09,2.93c.31.85.66,1.78.78,2.25h.02c.12-.42.5-1.4.82-2.22l1.13-2.96h.46l-2.16,5.6h-.51Z" style="fill: rgb(255, 255, 255); stroke-width: 0px;"/>
    </g>
    <g id="group10">
      <path class="cls-3" id="path48" d="m77.5,295.19c.17.74.66,1.18,1.58,1.18,1.02,0,1.42-.51,1.42-1.12s-.28-1.02-1.51-1.33c-1.18-.3-1.69-.68-1.69-1.49,0-.74.54-1.42,1.73-1.42s1.75.75,1.82,1.43h-.45c-.13-.6-.52-1.03-1.4-1.03-.81,0-1.25.38-1.25,1s.37.86,1.4,1.11c1.58.39,1.81,1.02,1.81,1.7,0,.82-.6,1.54-1.9,1.54-1.4,0-1.91-.82-2.01-1.57h.45Z" style="fill: rgb(255, 255, 255); stroke-width: 0px;"/>
      <path class="cls-3" id="path49" d="m82.81,294.76l-.71,1.94h-.44l2.05-5.6h.51l2.14,5.6h-.47l-.73-1.94h-2.36Zm2.21-.4c-.62-1.66-.94-2.46-1.06-2.84h0c-.14.42-.5,1.42-1,2.84h2.06Z" style="fill: rgb(255, 255, 255); stroke-width: 0px;"/>
      <path class="cls-3" id="path50" d="m87.94,296.7l-1.55-5.6h.45c.38,1.34,1.22,4.44,1.35,5.09h0c.1-.52,1.02-3.61,1.42-5.09h.48c.37,1.37,1.26,4.65,1.35,5.09h0c.18-.79,1.11-3.75,1.5-5.09h.44l-1.71,5.6h-.5c-.37-1.32-1.24-4.56-1.33-5.04h0c-.14.73-1.01,3.65-1.41,5.04h-.49Z" style="fill: rgb(255, 255, 255); stroke-width: 0px;"/>
    </g>
    <g id="group11">
      <path class="cls-3" id="path51" d="m99.23,290.8h2c1.02,0,1.73.57,1.73,1.56s-.7,1.6-1.78,1.6h-1.5v2.44h-.44v-5.6Zm.44,2.76h1.54c.9,0,1.28-.48,1.28-1.18,0-.75-.5-1.17-1.25-1.17h-1.58v2.36Z" style="fill: rgb(255, 255, 255); stroke-width: 0px;"/>
      <path class="cls-3" id="path52" d="m104.54,290.8v3.39c0,1.49.84,1.87,1.63,1.87.94,0,1.63-.39,1.63-1.87v-3.39h.44v3.37c0,1.75-.93,2.29-2.09,2.29s-2.06-.6-2.06-2.22v-3.44h.45Z" style="fill: rgb(255, 255, 255); stroke-width: 0px;"/>
      <path class="cls-3" id="path53" d="m109.81,290.8h.43v5.2h3.01l-.08.4h-3.36v-5.6Z" style="fill: rgb(255, 255, 255); stroke-width: 0px;"/>
      <path class="cls-3" id="path54" d="m114.28,294.89c.17.74.66,1.18,1.58,1.18,1.02,0,1.42-.51,1.42-1.12s-.28-1.02-1.51-1.33c-1.18-.3-1.7-.68-1.7-1.49,0-.74.54-1.42,1.74-1.42s1.75.75,1.82,1.43h-.45c-.13-.6-.52-1.03-1.4-1.03-.81,0-1.25.38-1.25,1s.37.86,1.4,1.11c1.58.39,1.81,1.02,1.81,1.7,0,.82-.6,1.54-1.89,1.54-1.4,0-1.91-.81-2.02-1.57h.45Z" style="fill: rgb(255, 255, 255); stroke-width: 0px;"/>
      <path class="cls-3" id="path55" d="m122.26,293.64h-2.85v2.35h3.13l-.06.4h-3.49v-5.6h3.43v.4h-3v2.05h2.85v.4Z" style="fill: rgb(255, 255, 255); stroke-width: 0px;"/>
    </g>
  </g>
  <g inkscape:groupmode="layer" id="components" inkscape:label="components" transform="matrix(1, 0, 0, 1, 28.602863311767578, 19.08072280883789)">
    <!-- <title>components</title> -->
    <circle id="Coarse" inkscape:label="Coarse"  class="cls-2" cx="72.5" cy="95.89" r="36.06" style="fill: rgb(255, 0, 0); stroke-width: 0px;"/>
    <circle id="Fine" inkscape:label="Fine" class="cls-2" cx="46.56" cy="170.79" r="10.11" style="fill: rgb(255, 0, 0); stroke-width: 0px;"/>
    <circle id="FMLVL" inkscape:label="FMLVL" class="cls-2" cx="46.56" cy="207.67" r="10.11" style="fill: rgb(255, 0, 0); stroke-width: 0px;"/>
    <circle id="PulseW" inkscape:label="PulseW" class="cls-2" cx="98.44" cy="170.79" r="10.11" style="fill: rgb(255, 0, 0); stroke-width: 0px;"/>
    <circle id="PWMCVLVL" inkscape:label="PWMCVLVL" class="cls-2" cx="98.44" cy="207.67" r="10.11" style="fill: rgb(255, 0, 0); stroke-width: 0px;"/>
    <circle id="PWMCV" inkscape:label="PWMCV" class="cls-5" cx="98.44" cy="248.61" r="8.56" style="fill: rgb(0, 255, 0); stroke-width: 0px;"/>
    <circle id="FMCV" inkscape:label="FMCV" class="cls-5" cx="59.33" cy="311.5" r="8.56" style="fill: rgb(0, 255, 0); stroke-width: 0px;"/>
    <circle id="_1V" inkscape:label="_1V" data-name="1V" class="cls-5" cx="33.08" cy="311.5" r="8.56" style="fill: rgb(0, 255, 0); stroke-width: 0px;"/>
    <circle id="Pulse" inkscape:label="Pulse" class="cls-6" cx="110.92" cy="311.5" r="8.56" style="fill: rgb(0, 0, 255); stroke-width: 0px;"/>
    <circle id="Saw" inkscape:label="Saw" class="cls-6" cx="84.67" cy="311.5" r="8.56" style="fill: rgb(0, 0, 255); stroke-width: 0px;"/>
  </g>
</svg>